<svg width="1369" height="925" viewBox="0 0 1369 925" fill="none" xmlns="http://www.w3.org/2000/svg">
<g clip-path="url(#clip0_515_2)" filter="url(#filter0_d_515_2)">
<path d="M882.604 208.564C908.451 208.564 929.404 187.618 929.404 161.781C929.404 135.943 908.451 114.998 882.604 114.998C856.756 114.998 835.803 135.943 835.803 161.781C835.803 187.618 856.756 208.564 882.604 208.564Z" fill="#F2F2F2"/>
<path d="M1062.73 489.838L261.802 0L-9.14519e-05 427.749L800.926 917.587L1062.73 489.838Z" fill="#F3C892"/>
<path d="M991.561 625.518C984.249 608.706 972.987 593.94 950.465 581.513C938.824 574.934 926.32 570.013 913.317 566.893C922.065 562.83 930.112 557.401 937.156 550.812C947.51 541.559 955.358 529.842 959.971 516.748C964.217 503.441 965.953 489.461 965.09 475.52C963.481 450.959 958.655 427.129 945.784 410.024C932.914 392.918 914.779 379.761 890.794 370.55C872.366 363.533 853.5 359.147 824.249 357.539V264.119L765.748 300.668V357.685H718.948V297.744L658.985 264.119V357.685H531.599L572.55 427.86C585.2 427.874 593.771 429.044 598.144 431.222C602.226 432.969 605.583 436.066 607.65 439.994C609.551 443.649 610.429 452.275 610.429 465.579V718.792C610.429 731.95 609.551 740.429 607.65 744.231C605.749 748.032 604.725 751.394 600.191 753.441C595.657 755.488 595.511 755.342 582.934 755.342H582.787L531.599 825.516H658.838V919.083H718.802V825.516H765.602V919.083H824.103V824.932C862.128 823.031 889.185 818.06 910.977 809.873C939.203 799.347 960.848 783.996 976.351 763.821C991.854 743.646 998.143 712.798 999.459 688.968C1000.48 667.769 998.143 640.43 991.561 625.518ZM718.802 436.631H718.816V434.687H759.708C782.714 434.687 859.379 427.026 860.651 489.613C861.938 552.2 759.708 549.642 759.708 549.642H718.816V544.817H718.802V436.631ZM718.802 614.992H765.602C775.109 614.992 807.81 616.44 819.715 616.98C824.569 617.157 829.374 618.013 833.99 619.524C835.671 620.094 837.266 620.738 838.991 621.454C846.205 623.784 853.01 627.227 859.159 631.659C863.169 634.305 866.696 637.618 869.587 641.454C870.84 643.185 871.992 644.986 873.039 646.849C875.808 651.533 877.863 656.603 879.137 661.892C880.531 667.001 881.254 672.269 881.287 677.565C881.287 688.953 879.181 698.383 873.989 706.365C866.955 718.149 855.415 726.497 842.428 732.389C808.849 747.652 765.602 746.57 765.602 746.57H718.802V614.992Z" fill="#3F3D56"/>
<path opacity="0.3" d="M895.268 163.749C894.825 162.653 894.009 161.749 892.965 161.195C892.315 160.814 891.613 160.529 890.882 160.347C891.375 160.109 891.826 159.794 892.219 159.413C892.802 158.871 893.242 158.191 893.498 157.436C893.736 156.663 893.833 155.852 893.784 155.044C893.78 153.701 893.406 152.386 892.702 151.243C891.917 150.198 890.847 149.402 889.619 148.952C888.428 148.49 887.166 148.234 885.889 148.197V142.775L882.609 144.896V148.205H879.986V144.726L876.624 142.775V148.205H869.483L871.779 152.278C872.265 152.244 872.754 152.311 873.214 152.473C873.445 152.576 873.633 152.756 873.747 152.982C873.886 153.464 873.939 153.967 873.902 154.467V169.162C873.938 169.66 873.885 170.159 873.747 170.639C873.64 170.859 873.582 171.054 873.328 171.173C873.074 171.292 873.066 171.283 872.361 171.283H872.353L869.483 175.356H876.616V180.786H879.978V175.356H882.601V180.786H885.881V175.322C887.54 175.293 889.185 174.998 890.751 174.448C892.205 173.929 893.477 173.001 894.416 171.775C895.234 170.472 895.682 168.97 895.711 167.431C895.798 166.187 895.647 164.938 895.268 163.749ZM879.978 152.787H879.978V152.674H882.271C883.561 152.674 887.858 152.229 887.93 155.862C888.002 159.494 882.271 159.346 882.271 159.346H879.978V159.066H879.978V152.787ZM879.978 163.138H882.601C883.134 163.138 884.967 163.222 885.635 163.254C885.907 163.264 886.177 163.314 886.435 163.401C886.529 163.434 886.619 163.472 886.715 163.513C887.121 163.649 887.503 163.849 887.846 164.105C888.072 164.26 888.27 164.452 888.431 164.674C888.679 165.034 888.861 165.436 888.966 165.86C889.044 166.157 889.085 166.463 889.087 166.77C889.114 167.355 888.972 167.935 888.677 168.441C888.256 169.114 887.639 169.641 886.908 169.951C885.542 170.511 884.077 170.79 882.601 170.774H879.978V163.138Z" fill="#064420"/>
<path d="M1167.28 695.596C1176.75 695.596 1184.44 687.918 1184.44 678.448C1184.44 668.977 1176.75 661.3 1167.28 661.3C1157.81 661.3 1150.13 668.977 1150.13 678.448C1150.13 687.918 1157.81 695.596 1167.28 695.596Z" fill="#FF6584"/>
<path d="M1302.51 865.114V669.868" stroke="#3F3D56" stroke-width="2" stroke-miterlimit="10"/>
<path d="M1302.51 697.478C1317.77 697.478 1330.13 685.117 1330.13 669.868C1330.13 654.619 1317.77 642.257 1302.51 642.257C1287.26 642.257 1274.89 654.619 1274.89 669.868C1274.89 685.117 1287.26 697.478 1302.51 697.478Z" fill="#3F3D56"/>
<path d="M1248.12 779.187C1208.22 840.348 1219.15 918.137 1219.15 918.137C1219.15 918.137 1294.77 896.765 1334.66 835.604C1374.56 774.442 1363.63 696.654 1363.63 696.654C1363.63 696.654 1288.01 718.026 1248.12 779.187Z" fill="#3F3D56"/>
<path d="M1218.94 917.426C1218.94 917.426 1217.97 917.271 1216.18 916.91C1214.75 916.621 1212.79 916.207 1210.39 915.639C1188.96 910.589 1131.99 893.515 1094.74 848.627C1048.12 792.419 1050.08 713.891 1050.08 713.891C1050.08 713.891 1121.37 725.469 1168.34 775.945C1170.38 778.114 1172.36 780.362 1174.28 782.689C1214.85 831.595 1218.63 897.399 1218.93 913.667C1218.97 916.104 1218.94 917.426 1218.94 917.426Z" fill="#064420"/>
<path d="M1190.19 779.187C1230.08 840.348 1219.15 918.137 1219.15 918.137C1219.15 918.137 1143.53 896.765 1103.64 835.604C1063.74 774.442 1074.67 696.654 1074.67 696.654C1074.67 696.654 1150.29 718.026 1190.19 779.187Z" stroke="#3F3D56" stroke-width="2" stroke-miterlimit="10"/>
<path opacity="0.1" d="M1218.93 913.666C1217.87 914.937 1216.94 916.021 1216.18 916.91C1214.48 918.841 1213.52 919.853 1213.52 919.853C1213.52 919.853 1212.36 918.387 1210.39 915.639C1199.62 900.621 1164.95 847.223 1167.63 785.54C1167.77 782.307 1168.01 779.109 1168.34 775.945C1170.38 778.114 1172.36 780.362 1174.28 782.689C1214.85 831.595 1218.63 897.399 1218.93 913.666Z" fill="black"/>
<path d="M1278.08 790.001C1274.93 862.948 1220.76 919.854 1220.76 919.854C1220.76 919.854 1171.7 858.489 1174.86 785.541C1178.01 712.594 1232.18 655.688 1232.18 655.688C1232.18 655.688 1281.24 717.053 1278.08 790.001Z" fill="#064420"/>
<path d="M1220.76 917.788L1232.67 658.664" stroke="#3F3D56" stroke-width="2" stroke-miterlimit="10"/>
<path d="M84.0535 918.072H1321.37" stroke="#3F3D56" stroke-width="2" stroke-miterlimit="10"/>
<path d="M346.844 602.061C381.358 602.061 409.338 574.092 409.338 539.591C409.338 505.09 381.358 477.122 346.844 477.122C312.33 477.122 284.351 505.09 284.351 539.591C284.351 574.092 312.33 602.061 346.844 602.061Z" fill="#064420"/>
<path d="M240.622 749.083C275.136 749.083 303.115 721.114 303.115 686.613C303.115 652.112 275.136 624.144 240.622 624.144C206.108 624.144 178.129 652.112 178.129 686.613C178.129 721.114 206.108 749.083 240.622 749.083Z" fill="#064420"/>
<path d="M109.887 866.497C144.401 866.497 172.38 838.528 172.38 804.027C172.38 769.526 144.401 741.557 109.887 741.557C75.3732 741.557 47.394 769.526 47.394 804.027C47.394 838.528 75.3732 866.497 109.887 866.497Z" fill="#064420"/>
<path d="M109.832 917.001V803.683" stroke="#3F3D56" stroke-width="2" stroke-miterlimit="10"/>
<path d="M109.832 819.708C118.685 819.708 125.862 812.533 125.862 803.683C125.862 794.833 118.685 787.658 109.832 787.658C100.978 787.658 93.801 794.833 93.801 803.683C93.801 812.533 100.978 819.708 109.832 819.708Z" fill="#3F3D56"/>
<path d="M109.832 873.523C109.832 873.523 107.542 824.286 60.5945 830.009L109.832 873.523Z" fill="#3F3D56"/>
<path d="M346.884 917.796V539.821" stroke="#3F3D56" stroke-width="2" stroke-miterlimit="10"/>
<path d="M346.884 555.667C355.737 555.667 362.914 548.492 362.914 539.642C362.914 530.792 355.737 523.617 346.884 523.617C338.03 523.617 330.853 530.792 330.853 539.642C330.853 548.492 338.03 555.667 346.884 555.667Z" fill="#3F3D56"/>
<path d="M297.646 829.133C306.5 829.133 313.677 821.959 313.677 813.109C313.677 804.259 306.5 797.084 297.646 797.084C288.793 797.084 281.616 804.259 281.616 813.109C281.616 821.959 288.793 829.133 297.646 829.133Z" fill="#3F3D56"/>
<path d="M346.884 621.497C346.884 621.497 344.594 572.26 297.646 577.983L346.884 621.497Z" fill="#3F3D56"/>
<path d="M346.884 761.078C346.884 761.078 344.594 711.841 297.646 717.564L346.884 761.078Z" fill="#3F3D56"/>
<path d="M346.884 913.391C346.884 913.391 357.189 817.687 297.646 813.109" stroke="#3F3D56" stroke-width="2" stroke-miterlimit="10"/>
<path d="M396.128 829.133C404.981 829.133 412.159 821.959 412.159 813.109C412.159 804.259 404.981 797.084 396.128 797.084C387.274 797.084 380.097 804.259 380.097 813.109C380.097 821.959 387.274 829.133 396.128 829.133Z" fill="#3F3D56"/>
<path d="M346.891 913.391C346.891 913.391 336.585 817.687 396.128 813.109" stroke="#3F3D56" stroke-width="2" stroke-miterlimit="10"/>
<path d="M397.104 678.816C405.958 678.816 413.135 671.641 413.135 662.791C413.135 653.941 405.958 646.766 397.104 646.766C388.251 646.766 381.074 653.941 381.074 662.791C381.074 671.641 388.251 678.816 397.104 678.816Z" fill="#3F3D56"/>
<path d="M347.867 757.968C347.867 757.968 337.562 667.369 397.104 662.791" stroke="#3F3D56" stroke-width="2" stroke-miterlimit="10"/>
<path d="M240.679 917.263V686.543" stroke="#3F3D56" stroke-width="2" stroke-miterlimit="10"/>
<path d="M240.679 702.568C249.533 702.568 256.71 695.393 256.71 686.543C256.71 677.693 249.533 670.519 240.679 670.519C231.826 670.519 224.649 677.693 224.649 686.543C224.649 695.393 231.826 702.568 240.679 702.568Z" fill="#3F3D56"/>
<path d="M240.679 751.805C240.679 751.805 238.389 702.568 191.442 708.291L240.679 751.805Z" fill="#3F3D56"/>
<path d="M240.679 912.858C240.679 912.858 250.985 818.175 191.442 813.597" stroke="#3F3D56" stroke-width="2" stroke-miterlimit="10"/>
<path d="M191.442 829.621C200.296 829.621 207.473 822.447 207.473 813.597C207.473 804.746 200.296 797.572 191.442 797.572C182.589 797.572 175.411 804.746 175.411 813.597C175.411 822.447 182.589 829.621 191.442 829.621Z" fill="#3F3D56"/>
<path d="M1120.99 566.747C1135.53 566.747 1147.32 554.965 1147.32 540.432C1147.32 525.898 1135.53 514.116 1120.99 514.116C1106.46 514.116 1094.67 525.898 1094.67 540.432C1094.67 554.965 1106.46 566.747 1120.99 566.747Z" fill="#F2F2F2"/>
<path opacity="0.1" d="M842.428 732.389C808.849 747.652 765.602 746.57 765.602 746.57H718.802V737.637C737.873 732.315 764.242 729.026 793.39 729.026C809.796 728.969 826.184 730.092 842.428 732.389Z" fill="black"/>
<path opacity="0.1" d="M898.691 758.266C898.691 774.42 851.54 787.505 793.39 787.505C735.24 787.505 688.089 774.42 688.089 758.266C688.089 750.21 699.818 742.915 718.802 737.637V746.57H765.602C765.602 746.57 808.849 747.652 842.428 732.389C875.876 737.272 898.691 747.023 898.691 758.266Z" fill="black"/>
<path d="M806.84 576.206H762.036V621.073H806.84V576.206Z" fill="#2F2E41"/>
<path d="M778.697 607.935C778.697 607.935 782.406 620.91 775.916 621.837C771.888 622.464 768.072 624.054 764.79 626.471L776.843 642.226H799.094L813.001 628.324C813.001 628.324 794.458 614.422 798.167 606.081C801.876 597.74 778.697 607.935 778.697 607.935Z" fill="#FFB9B9"/>
<path opacity="0.1" d="M778.697 607.935C778.697 607.935 782.406 620.91 775.916 621.837C771.888 622.464 768.072 624.054 764.79 626.471L776.843 642.226H799.094L813.001 628.324C813.001 628.324 794.458 614.422 798.167 606.081C801.876 597.74 778.697 607.935 778.697 607.935Z" fill="black"/>
<path d="M784.26 769.197L805.585 776.61L820.418 777.537L819.49 764.562L788.896 755.517L784.26 769.197Z" fill="#FFB9B9"/>
<path d="M811.61 766.416C811.61 766.416 811.61 779.391 813.465 779.391C815.319 779.391 840.352 776.611 847.769 779.391C855.186 782.171 866.312 771.977 860.749 766.416C855.186 760.855 846.112 752.514 840.45 754.368C834.789 756.221 811.61 760.855 811.61 760.855L811.61 766.416Z" fill="#2F2E41"/>
<path d="M743.466 754.368C743.466 754.368 732.34 776.611 739.757 778.464C747.174 780.318 755.519 777.537 756.446 776.611C757.373 775.684 770.353 771.977 772.207 773.83C774.061 775.684 774.061 766.416 774.061 766.416L743.466 754.368Z" fill="#2F2E41"/>
<path d="M752.737 723.784C752.737 723.784 735.121 747.88 748.101 754.368C761.081 760.855 823.199 760.855 827.835 754.368C832.471 747.88 834.325 727.491 827.835 725.637C821.345 723.784 752.737 723.784 752.737 723.784Z" fill="#2F2E41"/>
<path opacity="0.2" d="M752.737 723.784C752.737 723.784 735.121 747.88 748.101 754.368C761.081 760.855 823.199 760.855 827.835 754.368C832.471 747.88 834.325 727.491 827.835 725.637C821.345 723.784 752.737 723.784 752.737 723.784Z" fill="black"/>
<path d="M786.114 614.422C797.891 614.422 807.438 604.879 807.438 593.106C807.438 581.333 797.891 571.79 786.114 571.79C774.337 571.79 764.79 581.333 764.79 593.106C764.79 604.879 774.337 614.422 786.114 614.422Z" fill="#FFB9B9"/>
<path d="M752.737 626.471L771.28 622.763C771.28 622.763 775.915 637.592 790.75 634.812C805.584 632.031 809.292 622.763 809.292 622.763C809.292 622.763 820.418 627.397 821.345 627.397C822.272 627.397 834.325 632.031 834.325 634.812C834.325 637.592 820.418 665.396 820.418 665.396L822.272 715.443L753.664 713.589L758.3 664.469L752.737 626.471Z" fill="#064420"/>
<path d="M742.539 650.567C742.539 650.567 736.976 699.687 740.684 703.394C744.393 707.101 759.227 717.296 759.227 717.296V706.175L751.81 692.273L759.227 659.835L742.539 650.567Z" fill="#FFB9B9"/>
<path d="M838.497 649.177C838.497 649.177 835.252 699.687 835.252 701.541C835.252 703.394 826.908 709.882 824.127 709.882C821.345 709.882 819.491 705.248 819.491 705.248L825.981 697.833L821.345 659.835L838.497 649.177Z" fill="#FFB9B9"/>
<path d="M829.69 720.076C829.69 720.076 871.411 696.907 872.338 720.076C873.265 743.246 851.014 752.514 851.014 752.514C851.014 752.514 793.531 769.745 791.213 763.446C788.896 757.148 784.26 746.953 787.968 746.027C791.677 745.1 796.313 743.246 798.167 745.1C800.021 746.953 823.2 731.198 823.2 731.198L829.69 720.076Z" fill="#2F2E41"/>
<path opacity="0.2" d="M849.159 717.296C849.159 717.296 840.815 721.003 838.034 723.784C835.252 726.564 823.199 731.198 823.199 731.198" stroke="black" stroke-width="2" stroke-miterlimit="10"/>
<path d="M758.3 628.324L752.737 626.47C752.737 626.47 732.34 647.787 738.83 653.347C745.32 658.908 749.028 660.762 750.883 662.615C752.737 664.469 762.008 665.396 762.008 665.396L758.3 628.324Z" fill="#064420"/>
<path d="M825.981 632.958L834.325 634.812C834.325 634.812 840.815 648.714 842.67 650.567C844.524 652.421 839.888 651.494 837.107 655.201C834.325 658.908 831.544 665.396 825.981 665.396C820.418 665.396 813.001 656.128 813.001 656.128L825.981 632.958Z" fill="#064420"/>
<path d="M754.591 728.418C754.591 728.418 719.36 703.394 707.307 721.93C695.254 740.466 759.227 765.489 768.498 769.196C777.77 772.904 786.114 776.611 786.114 776.611C786.114 776.611 794.458 756.221 794.458 752.514C794.458 748.807 787.968 748.807 786.114 748.807C784.26 748.807 775.915 746.953 774.061 744.173C772.207 741.393 754.591 728.418 754.591 728.418Z" fill="#2F2E41"/>
<path opacity="0.2" d="M735.121 721.93C735.121 721.93 744.393 729.344 752.737 731.198C761.081 733.051 763.863 737.685 763.863 737.685" stroke="black" stroke-width="2" stroke-miterlimit="10"/>
<path d="M748.196 687.083L748.937 726.324C748.961 727.62 749.497 728.854 750.428 729.757C751.358 730.66 752.608 731.158 753.905 731.143L826.957 730.323C828.202 730.309 829.395 729.823 830.295 728.964C831.196 728.105 831.736 726.936 831.808 725.694L834.025 687.273C834.064 686.606 833.966 685.937 833.737 685.308C833.507 684.68 833.152 684.105 832.693 683.618C832.234 683.132 831.68 682.745 831.065 682.48C830.451 682.215 829.789 682.078 829.119 682.078H753.109C752.456 682.078 751.81 682.208 751.207 682.461C750.605 682.714 750.059 683.084 749.602 683.55C749.144 684.016 748.784 684.568 748.543 685.175C748.302 685.782 748.184 686.43 748.196 687.083Z" fill="#575A89"/>
<path d="M739.746 626.704C741.735 622.315 744.409 618.197 745.683 613.549C747.211 607.98 746.616 602.086 746.434 596.314C746.144 591.209 746.579 586.088 747.727 581.105C748.892 576.098 751.508 571.546 755.247 568.017C764.963 559.346 782.745 558.724 794.609 562.333C799.286 563.756 804.269 566.466 805.428 571.213C805.603 571.93 805.682 572.669 805.877 573.38C806.849 576.915 810.466 579.152 811.772 582.577C813.46 587.008 810.857 591.827 810.517 596.556C810.119 602.077 812.834 607.293 815.511 612.139C817.102 615.02 818.756 618.089 818.598 621.376C818.466 623.174 817.919 624.916 817 626.467C815.295 629.279 812.904 631.612 810.05 633.248C807.196 634.883 803.973 635.767 800.684 635.817C798.546 635.988 796.408 635.483 794.573 634.374C791.677 632.382 790.829 628.368 791.433 624.906C792.036 621.445 793.794 618.313 795.171 615.08C795.594 614.088 795.975 613.079 796.327 612.06C800.598 609.677 803.89 605.861 805.62 601.287C807.35 596.714 807.408 591.676 805.783 587.063C804.159 582.451 800.956 578.561 796.74 576.08C792.525 573.599 787.568 572.687 782.745 573.505C777.922 574.323 773.543 576.818 770.382 580.549C767.221 584.281 765.48 589.009 765.468 593.899C765.456 598.789 767.172 603.526 770.315 607.274C773.457 611.021 777.823 613.538 782.642 614.381C783.68 619.611 783.208 625.029 781.281 630.002C779.528 634.047 777.327 637.883 774.719 641.439C773.652 643.261 772.231 644.851 770.539 646.115C769.423 646.775 768.226 647.286 766.977 647.635C761.74 649.319 756.226 650.674 750.777 649.916C745.329 649.159 739.933 645.874 738.076 640.698C736.449 636.162 737.756 631.093 739.746 626.704Z" fill="#2F2E41"/>
<path d="M785.081 593.956C797.579 593.956 807.711 588.217 807.711 581.137C807.711 574.057 797.579 568.318 785.081 568.318C772.582 568.318 762.45 574.057 762.45 581.137C762.45 588.217 772.582 593.956 785.081 593.956Z" fill="#2F2E41"/>
<path opacity="0.3" d="M1130.84 541.961C1130.49 541.11 1129.86 540.407 1129.05 539.977C1128.54 539.681 1128 539.459 1127.43 539.317C1127.81 539.133 1128.16 538.888 1128.47 538.592C1128.92 538.171 1129.26 537.643 1129.46 537.056C1129.64 536.455 1129.72 535.825 1129.68 535.197C1129.68 534.154 1129.39 533.132 1128.84 532.243C1128.23 531.431 1127.4 530.813 1126.45 530.463C1125.52 530.104 1124.54 529.905 1123.55 529.876V525.663L1121 527.311V529.883H1118.96V527.179L1116.35 525.663V529.883H1110.8L1112.58 533.047C1112.96 533.021 1113.34 533.073 1113.7 533.199C1113.88 533.279 1114.02 533.419 1114.11 533.595C1114.22 533.969 1114.26 534.36 1114.23 534.748V546.168C1114.26 546.554 1114.22 546.943 1114.11 547.315C1114.03 547.486 1113.98 547.638 1113.79 547.73C1113.59 547.822 1113.58 547.816 1113.04 547.816H1113.03L1110.8 550.981H1116.34V555.2H1118.95V550.981H1120.99V555.2H1123.54V550.954C1124.83 550.931 1126.11 550.702 1127.33 550.275C1128.45 549.872 1129.44 549.15 1130.17 548.198C1130.81 547.185 1131.16 546.018 1131.18 544.823C1131.25 543.856 1131.13 542.885 1130.84 541.961ZM1118.95 533.443H1118.95V533.355H1120.74C1121.74 533.355 1125.08 533.01 1125.13 535.832C1125.19 538.655 1120.74 538.539 1120.74 538.539H1118.95V538.322H1118.95V533.443ZM1118.95 541.487H1120.99C1121.41 541.487 1122.83 541.552 1123.35 541.576C1123.56 541.584 1123.77 541.623 1123.97 541.691C1124.04 541.717 1124.11 541.746 1124.19 541.778C1124.5 541.884 1124.8 542.039 1125.07 542.238C1125.24 542.358 1125.4 542.508 1125.52 542.68C1125.72 542.96 1125.86 543.272 1125.94 543.602C1126 543.832 1126.03 544.07 1126.03 544.308C1126.05 544.763 1125.94 545.214 1125.71 545.607C1125.39 546.13 1124.91 546.54 1124.34 546.781C1123.28 547.215 1122.14 547.433 1120.99 547.42H1118.95V541.487Z" fill="#064420"/>
<path d="M94.306 658.851C108.845 658.851 120.631 647.069 120.631 632.536C120.631 618.002 108.845 606.22 94.306 606.22C79.767 606.22 67.9807 618.002 67.9807 632.536C67.9807 647.069 79.767 658.851 94.306 658.851Z" fill="#F2F2F2"/>
<path opacity="0.3" d="M104.147 634.066C103.803 633.214 103.169 632.511 102.357 632.081C101.852 631.785 101.307 631.563 100.739 631.422C101.122 631.237 101.472 630.992 101.777 630.696C102.231 630.275 102.573 629.747 102.771 629.16C102.956 628.559 103.032 627.929 102.994 627.301C102.991 626.258 102.7 625.236 102.153 624.347C101.543 623.535 100.711 622.917 99.7577 622.567C98.8319 622.208 97.8516 622.01 96.8589 621.98V617.767L94.3106 619.416V621.987H92.2718V619.284L89.6597 617.767V621.987H84.1106L85.8945 625.152C86.2726 625.126 86.652 625.177 87.0094 625.303C87.1888 625.384 87.3351 625.523 87.4235 625.699C87.5322 626.073 87.5732 626.464 87.5446 626.853V638.272C87.5723 638.658 87.5313 639.047 87.4235 639.419C87.3407 639.59 87.2961 639.742 87.0986 639.834C86.9011 639.927 86.8947 639.92 86.3469 639.92H86.3405L84.1106 643.085H89.6534V647.304H92.2655V643.085H94.3042V647.304H96.8526V643.058C98.1422 643.036 99.4199 642.806 100.637 642.379C101.767 641.976 102.756 641.255 103.485 640.303C104.121 639.289 104.468 638.122 104.491 636.927C104.559 635.96 104.442 634.989 104.147 634.066ZM92.2655 625.547H92.2662V625.459H94.0475C95.0497 625.459 98.3893 625.114 98.4448 627.937C98.5008 630.759 94.0475 630.644 94.0475 630.644H92.2662V630.426H92.2655L92.2655 625.547ZM92.2655 633.591H94.3043C94.7184 633.591 96.1429 633.656 96.6615 633.68C96.8733 633.688 97.0827 633.727 97.2833 633.795C97.3566 633.821 97.426 633.85 97.5012 633.882C97.8167 633.988 98.1133 634.143 98.3798 634.342C98.5554 634.463 98.709 634.612 98.8341 634.784C99.0272 635.064 99.1681 635.376 99.2501 635.706C99.3108 635.937 99.3423 636.174 99.3437 636.413C99.3647 636.867 99.2543 637.318 99.0258 637.712C98.6986 638.234 98.2187 638.644 97.6509 638.885C96.5893 639.32 95.4513 639.537 94.3042 639.525H92.2655L92.2655 633.591Z" fill="#064420"/>
</g>
<defs>
<filter id="filter0_d_515_2" x="-4" y="0" width="1373" height="928" filterUnits="userSpaceOnUse" color-interpolation-filters="sRGB">
<feFlood flood-opacity="0" result="BackgroundImageFix"/>
<feColorMatrix in="SourceAlpha" type="matrix" values="0 0 0 0 0 0 0 0 0 0 0 0 0 0 0 0 0 0 127 0" result="hardAlpha"/>
<feOffset dy="4"/>
<feGaussianBlur stdDeviation="2"/>
<feComposite in2="hardAlpha" operator="out"/>
<feColorMatrix type="matrix" values="0 0 0 0 0 0 0 0 0 0 0 0 0 0 0 0 0 0 0.25 0"/>
<feBlend mode="normal" in2="BackgroundImageFix" result="effect1_dropShadow_515_2"/>
<feBlend mode="normal" in="SourceGraphic" in2="effect1_dropShadow_515_2" result="shape"/>
</filter>
<clipPath id="clip0_515_2">
<rect width="1365" height="920" fill="white"/>
</clipPath>
</defs>
</svg>
